<?xml version="1.0" encoding="UTF-8"?>
<svg id="Layer_1" data-name="Layer 1" xmlns="http://www.w3.org/2000/svg" viewBox="0 0 890.05 69.28">
  <path d="m52.66,41c-1.5,3.66-2.82,7.02-5.76,7.02-2.46,0-2.94-1.38-3.78-3.54l-5.04-13.08c-.72-1.92-1.44-3.54-1.98-3.54-.6,0-1.14,1.74-1.98,3.54l-5.76,12.6c-.9,1.86-2.1,4.02-4.38,4.02s-3.48-1.74-4.38-4.26l-9.6-26.22c-1.08-3-2.34-5.22-3.54-5.64-.9-.3-1.14-1.32-1.14-2.52,0-2.34.36-3.36,2.82-3.36s4.86.18,7.32.18,4.86-.18,7.32-.18,2.76.3,2.76,2.88c0,2.34-1.92,2.82-1.92,4.74,0,1.32.84,4.2,1.92,7.38.96,2.76,1.68,5.64,2.58,5.64,1.02,0,3.84-7.68,3.84-9.78,0-3.9-4.5-4.02-4.5-7.74,0-2.46.54-3.12,2.58-3.12,2.64,0,5.28.18,7.92.18s5.28-.18,7.92-.18,3,.24,3,2.7c0,3.84-2.58,2.52-2.58,5.1,0,1.38.84,4.26,1.86,7.14s1.62,5.4,2.52,5.4c1.26,0,4.14-10.2,4.14-11.46.06-3.3-3.18-2.34-3.18-5.46s.84-3.42,2.1-3.42c2.04,0,4.02.18,6,.18s4.02-.18,6-.18c1.86,0,1.98.42,1.98,2.64,0,2.1-.36,2.34-1.8,3.24-1.32.84-1.62,1.2-1.98,2.16l-11.28,26.94Z"/>
  <path d="m79.6,32.6c.84,3.96,2.76,7.08,7.2,7.08,3.96,0,6.9-3.48,8.04-3.48.78,0,.96.48.96,1.5,0,8.16-10.02,9.9-16.2,9.9-9.06,0-13.8-6.36-13.8-14.46,0-9.06,7.5-17.52,16.74-17.52,10.02,0,13.02,7.56,13.02,11.16,0,.9-1.26,1.8-2.88,2.22l-13.08,3.6Zm1.56-11.1c-1.92,0-2.76,2.04-2.76,3.66s.3,2.4,1.2,2.4c.6,0,4.56-.84,4.56-2.88,0-1.68-1.2-3.18-3-3.18Z"/>
  <path d="m103.24,15.98c0-2.76-1.26-3.36-1.98-3.9-.66-.54-1.32-.84-1.32-2.28,0-2.94,9.96-6,13.38-6,2.58,0,3.18.48,3.18,1.44v28.56c0,5.88.24,6.9,1.98,7.98.78.48,1.44.96,1.44,2.64,0,.66-.12,2.76-1.86,2.76-2.76,0-5.52-.18-8.28-.18s-5.52.18-8.28.18c-1.74,0-2.22-1.02-2.22-3.3,0-1.32.3-1.56,1.74-2.1,1.98-.72,2.22-2.7,2.22-15.72v-10.08Z"/>
  <path d="m126.58,15.98c0-2.76-1.26-3.36-1.98-3.9-.66-.54-1.32-.84-1.32-2.28,0-2.94,9.96-6,13.38-6,2.58,0,3.18.48,3.18,1.44v28.56c0,5.88.24,6.9,1.98,7.98.78.48,1.44.96,1.44,2.64,0,.66-.12,2.76-1.86,2.76-2.76,0-5.52-.18-8.28-.18s-5.52.18-8.28.18c-1.74,0-2.22-1.02-2.22-3.3,0-1.32.3-1.56,1.74-2.1,1.98-.72,2.22-2.7,2.22-15.72v-10.08Z"/>
  <path d="m186.1,47.18c-2.88,0-5.82-.18-8.7-.18s-5.82.18-8.7.18c-2.04,0-3.12-.36-3.12-3.18,0-4.26,2.76-.48,3.24-5.76.3-3.36.36-7.68.36-11.94s-.12-8.58-.42-11.94c-.3-3.66-3.06-1.56-3.06-5.46,0-2.7,1.38-2.88,3.78-2.88s4.5.18,6.78.18,4.5-.18,6.78-.18c2.16,0,3.72.3,3.72,3,0,3.78-2.7,1.68-2.64,5.34-.3,3.36-.42,7.62-.42,11.94s.06,8.58.36,11.94c.48,4.92,4.44,1.2,4.44,5.82,0,2.46-.72,3.12-2.4,3.12Z"/>
  <path d="m214.72,23.6c0-1.56-2.52-1.74-2.52-3.84,0-1.68,3-2.88,6.66-5.34,3.78-2.52,7.2-4.86,8.04-4.86,1.08,0,1.26.84,1.26,2.1,0,3.54,0,4.44.72,4.44,1.32,0,4.26-.12,5.46-.12.78,0,.96.6.96,1.26,0,1.2-.66,3.42-.96,4.44-.24.9-1.14,1.26-3.54,1.26h-2.82v9.54c0,6.24,1.38,7.38,2.94,7.38.96,0,1.86-.12,2.7-.12,1.08,0,1.68.12,1.68,1.38,0,4.68-7.2,6.48-10.74,6.48-6.54,0-9.84-3-9.84-9.6v-14.4Z"/>
  <path d="m240.52,14.96c0-1.56-.9-2.4-1.86-2.88-.9-.42-1.74-.78-1.74-2.34,0-3.12,12.36-5.94,14.34-5.94,1.62,0,2.52,1.02,2.52,2.64,0,4.26-.36,8.64-.3,12.84,2.76-2.34,6.3-3.66,9.66-3.66,4.02,0,11.4,1.14,11.4,9.9,0,5.22.18,7.8.18,10.38,0,1.74,0,5.16,1.74,5.88,1.02.42,1.5.66,1.5,2.4,0,1.08-.42,3-1.62,3-2.58,0-5.16-.18-7.74-.18s-5.16.18-7.74.18c-1.56,0-1.8-1.92-1.8-3.12,0-2.04,1.14-1.32,1.5-2.28.66-1.68.72-2.58.72-8.28,0-4.02,0-10.02-5.22-10.02-1.26,0-2.4.66-2.4,2.04,0,3.6.12,7.74.12,10.68,0,2.04.06,4.98,1.44,5.58,1.2.54,1.5.96,1.5,2.52,0,1.92-.3,2.88-2.34,2.88-2.52,0-5.04-.18-7.56-.18s-5.04.18-7.56.18c-1.98,0-2.16-.72-2.16-2.52,0-2.1.66-2.28,1.98-2.88,1.44-.66,1.44-5.7,1.44-14.58v-12.24Z"/>
  <path d="m297.34,15.62c9.84,0,16.8,5.16,16.8,15.48s-7.62,16.5-17.64,16.5-16.38-5.1-16.38-15.12,6.84-16.86,17.22-16.86Zm-3.42,13.26c0,10.38,1.98,12.72,3.9,12.72,1.62,0,2.52-1.92,2.52-7.26,0-10.38-1.98-12.72-3.96-12.72-1.56,0-2.46,1.92-2.46,7.26Z"/>
  <path d="m319.48,26.84c0-3.36-.6-4.74-1.26-5.22-1.5-1.08-2.58-1.08-2.58-3.06,0-2.22,1.38-2.52,3.42-2.52s4.08.18,6.12.18,4.08-.18,6.12-.18c1.26,0,1.8.9,1.8,2.28,0,3.36-.36,6.72-.36,10.08,0,7.56.72,10.74,5.04,10.74,2.22,0,2.64-1.02,2.64-2.7v-12.72c0-1.5-.96-1.8-1.5-2.1-1.2-.66-2.1-.66-2.1-2.88,0-1.8.54-2.7,1.8-2.7,2.1,0,4.2.18,6.3.18s4.2-.18,6.3-.18c1.92,0,2.46,1.08,2.46,2.88,0,6.42-.18,10.08-.18,16.38,0,2.64,1.08,3.6,2.16,4.14,1.08.6,2.28.78,2.28,2.04,0,1.68-.96,2.46-2.58,3l-11.88,4.14c-.78.3-1.38.36-2.04.36-.9,0-.9-1.32-.9-2.1v-3.54c-3.6,3.18-6.48,4.26-11.34,4.26-6.12,0-9.72-2.4-9.72-8.82v-11.94Z"/>
  <path d="m376.36,15.62c7.02,0,10.2,2.88,11.76,2.88,2.04,0,3.6-1.92,5.1-1.92,1.38,0,1.8,2.76,1.8,3.72,0,3.6-1.5,4.2-4.62,5.28.24.54.42,1.44.42,2.4,0,3.18-2.88,8.94-12.48,8.94-1.62,0-3.3-.12-4.92-.12-1.2,0-1.62.36-1.62,1.26,0,1.8,2.28,1.86,4.38,1.86,2.46,0,5.34-.3,9-.3,5.58,0,9.18,3.66,9.18,8.04,0,7.92-7.68,12.66-19.14,12.66-9.42,0-14.28-2.28-14.28-6.54,0-2.76,1.14-3.9,3.18-5.52-1.8-1.26-3.42-3.3-3.42-5.58,0-3.96,2.94-5.88,6.12-7.56-3.48-1.86-5.22-5.22-5.22-8.4,0-7.5,6.96-11.1,14.76-11.1Zm-.66,38.7c2.76,0,4.86-.72,4.86-1.62,0-2.1-1.86-1.8-3.66-2.1-2.4-.42-4.74-.72-5.7-.72-1.02,0-1.62.12-1.62,1.2,0,2.58,4.26,3.24,6.12,3.24Zm.42-23.76c2.4,0,2.4-3.18,2.4-4.62,0-1.74-.24-4.32-2.52-4.32-1.86,0-2.1,2.22-2.1,3.6s.18,5.34,2.22,5.34Z"/>
  <path d="m400.54,14.96c0-1.56-.9-2.4-1.86-2.88-.9-.42-1.74-.78-1.74-2.34,0-3.12,12.36-5.94,14.34-5.94,1.62,0,2.52,1.02,2.52,2.64,0,4.26-.36,8.64-.3,12.84,2.76-2.34,6.3-3.66,9.66-3.66,4.02,0,11.4,1.14,11.4,9.9,0,5.22.18,7.8.18,10.38,0,1.74,0,5.16,1.74,5.88,1.02.42,1.5.66,1.5,2.4,0,1.08-.42,3-1.62,3-2.58,0-5.16-.18-7.74-.18s-5.16.18-7.74.18c-1.56,0-1.8-1.92-1.8-3.12,0-2.04,1.14-1.32,1.5-2.28.66-1.68.72-2.58.72-8.28,0-4.02,0-10.02-5.22-10.02-1.26,0-2.4.66-2.4,2.04,0,3.6.12,7.74.12,10.68,0,2.04.06,4.98,1.44,5.58,1.2.54,1.5.96,1.5,2.52,0,1.92-.3,2.88-2.34,2.88-2.52,0-5.04-.18-7.56-.18s-5.04.18-7.56.18c-1.98,0-2.16-.72-2.16-2.52,0-2.1.66-2.28,1.98-2.88,1.44-.66,1.44-5.7,1.44-14.58v-12.24Z"/>
  <path d="m442.54,23.6c0-1.56-2.52-1.74-2.52-3.84,0-1.68,3-2.88,6.66-5.34,3.78-2.52,7.2-4.86,8.04-4.86,1.08,0,1.26.84,1.26,2.1,0,3.54,0,4.44.72,4.44,1.32,0,4.26-.12,5.46-.12.78,0,.96.6.96,1.26,0,1.2-.66,3.42-.96,4.44-.24.9-1.14,1.26-3.54,1.26h-2.82v9.54c0,6.24,1.38,7.38,2.94,7.38.96,0,1.86-.12,2.7-.12,1.08,0,1.68.12,1.68,1.38,0,4.68-7.2,6.48-10.74,6.48-6.54,0-9.84-3-9.84-9.6v-14.4Z"/>
  <path d="m489.4,26.12c0-1.08-.9-1.44-1.8-1.92-.84-.42-1.74-.72-1.74-2.4,0-1.98,2.82-2.76,6.24-3.78,3.54-1.08,8.58-2.4,9.42-2.4.72,0,1.14.18,1.14,1.5v21.9c0,1.08,1.08,1.86,2.4,2.76.84.6,1.14.78,1.14,2.1,0,2.4-1.14,3.3-3.18,3.3-2.58,0-5.16-.18-7.74-.18s-5.16.18-7.74.18c-1.26,0-1.86-1.2-1.86-2.4,0-1.26,0-2.22,1.32-3,1.86-1.08,2.4-1.74,2.4-5.64v-10.02Zm8.76-22.32c2.28,0,4.44,1.08,4.44,3.6,0,4.14-5.58,6.84-9.18,6.84-2.4,0-3.54-.9-3.54-3.42,0-3.6,4.92-7.02,8.28-7.02Z"/>
  <path d="m511.96,23.6c0-1.56-2.52-1.74-2.52-3.84,0-1.68,3-2.88,6.66-5.34,3.78-2.52,7.2-4.86,8.04-4.86,1.08,0,1.26.84,1.26,2.1,0,3.54,0,4.44.72,4.44,1.32,0,4.26-.12,5.46-.12.78,0,.96.6.96,1.26,0,1.2-.66,3.42-.96,4.44-.24.9-1.14,1.26-3.54,1.26h-2.82v9.54c0,6.24,1.38,7.38,2.94,7.38.96,0,1.86-.12,2.7-.12,1.08,0,1.68.12,1.68,1.38,0,4.68-7.2,6.48-10.74,6.48-6.54,0-9.84-3-9.84-9.6v-14.4Z"/>
  <path d="m556.72,26.18c-1.14-2.16-2.04-3.78-2.58-4.74-.36-.66-1.8-1.14-1.8-2.76s.48-2.64,2.1-2.64c2.46,0,4.92.18,7.38.18s4.92-.18,7.38-.18c1.32,0,1.56,1.32,1.56,2.58,0,1.8-.84,2.28-1.2,2.58-.3.24-.48.48-.48,1.38,0,1.5,4.44,9.12,5.28,9.12.72,0,3.24-5.1,3.24-5.88,0-1.08-1.5-3.66-2.58-4.38-1.14-.78-1.68-1.14-1.68-2.58,0-1.32.48-2.82,1.62-2.82,2.76,0,5.52.18,8.28.18s5.52-.18,8.28-.18c1.32,0,1.56,1.08,1.56,2.46,0,1.56-1.14,1.92-1.8,2.52-.42.3-.42.72-.42,1.38,0,2.64,3.9,8.94,4.44,8.94,1.08,0,4.26-6.9,4.26-9.06,0-.3-.12-.66-.3-.9-.54-.84-2.94-1.44-2.94-2.76s.36-2.58,1.8-2.58c2.04,0,4.08.18,6.12.18s4.08-.18,6.12-.18c1.56,0,2.1.78,2.1,2.34,0,1.92-1.44,1.92-2.64,3.06-3.54,3.36-9.24,13.62-11.64,17.64-3.18,5.28-4.62,8.52-6.78,8.52s-4.38-3.72-6.18-7.44-3.24-7.44-4.02-7.44c-.54,0-2.46,3.72-4.68,7.44s-4.74,7.44-6.66,7.44-2.7-1.86-6.84-9.6l-6.3-11.82Z"/>
  <path d="m629.74,28.1c.72-.24,1.02-.42,1.02-.6,0-.42.12-1.74.12-3.18,0-2.16-.72-2.82-3.96-2.82-2.82,0-4.74,1.62-6.18,3.24-1.5,1.68-2.58,3.3-3.9,3.3-2.22,0-2.76-3.06-2.76-4.74,0-6.54,12.06-7.68,16.68-7.68,7.86,0,13.38,1.38,13.38,10.14,0,3.66-.42,7.38-.42,11.04,0,1.56.3,2.28,1.68,2.28.66,0,1.26-.42,1.86-.42.54,0,.84.48.84,1.14,0,6-8.16,7.8-12.84,7.8-2.4,0-3.6-.78-4.5-2.94-3.06,1.62-6.84,2.94-10.32,2.94-4.86,0-7.62-2.46-7.62-7.38,0-5.22,2.88-7.92,8.52-9.6l8.4-2.52Zm1.14,5.64c-2.1,0-4.8,1.02-4.8,4.32,0,1.08.66,1.92,1.8,1.92,2.4,0,3-2.1,3-3.42v-2.82Z"/>
  <path d="m670.11,16.52c.48,0,1.5-.3,1.98-.3,2.22,0,3.12,5.4,3.12,6.96,0,1.86-.48,2.82-2.58,2.82-2.28,0-3.3-4.5-7.8-4.5-.9,0-1.98.36-1.98,1.38,0,3.6,13.74,2.88,13.74,12.24,0,8.22-7.2,12.48-14.58,12.48-5.4,0-10.74-.54-10.74-7.2,0-1.44.18-4.74,2.28-4.74,2.58,0,3.3,6.06,9,6.06,1.26,0,3.72.12,3.72-1.44,0-3.84-14.7-2.82-14.7-13.14,0-6.84,4.68-11.52,11.52-11.52,4.26,0,5.88.9,7.02.9Z"/>
  <path d="m716.43,15.62c4.92,0,10.98,1.02,10.98,5.58,0,2.64-.9,5.52-3.42,5.52-3.96,0-5.4-5.22-8.52-5.22-1.92,0-2.28,3.18-2.28,4.74,0,5.34.84,12.72,7.68,12.72,2.46,0,4.08-1.74,5.46-1.74,1.26,0,1.62,1.02,1.62,2.1,0,5.34-9.6,8.28-14.58,8.28-10.08,0-13.44-6.3-13.44-15.06s5.28-16.92,16.5-16.92Z"/>
  <path d="m749.01,15.62c9.84,0,16.8,5.16,16.8,15.48s-7.62,16.5-17.64,16.5-16.38-5.1-16.38-15.12,6.84-16.86,17.22-16.86Zm-3.42,13.26c0,10.38,1.98,12.72,3.9,12.72,1.62,0,2.52-1.92,2.52-7.26,0-10.38-1.98-12.72-3.96-12.72-1.56,0-2.46,1.92-2.46,7.26Z"/>
  <path d="m785.67,15.62c9.84,0,16.8,5.16,16.8,15.48s-7.62,16.5-17.64,16.5-16.38-5.1-16.38-15.12,6.84-16.86,17.22-16.86Zm-3.42,13.26c0,10.38,1.98,12.72,3.9,12.72,1.62,0,2.52-1.92,2.52-7.26,0-10.38-1.98-12.72-3.96-12.72-1.56,0-2.46,1.92-2.46,7.26Z"/>
  <path d="m809.37,15.98c0-2.76-1.26-3.36-1.98-3.9-.66-.54-1.32-.84-1.32-2.28,0-2.94,9.96-6,13.38-6,2.58,0,3.18.48,3.18,1.44v28.56c0,5.88.24,6.9,1.98,7.98.78.48,1.44.96,1.44,2.64,0,.66-.12,2.76-1.86,2.76-2.76,0-5.52-.18-8.28-.18s-5.52.18-8.28.18c-1.74,0-2.22-1.02-2.22-3.3,0-1.32.3-1.56,1.74-2.1,1.98-.72,2.22-2.7,2.22-15.72v-10.08Z"/>
  <path d="m836.55,28.16c-3.42,0-6.24-2.16-6.24-5.76,0-4.38,3.06-6.6,6.84-6.6,3.42,0,6.24,2.16,6.24,5.76,0,4.38-3.06,6.6-6.84,6.6Zm0,19.2c-3.42,0-6.24-2.16-6.24-5.76,0-4.38,3.06-6.6,6.84-6.6,3.42,0,6.24,2.16,6.24,5.76,0,4.38-3.06,6.6-6.84,6.6Z"/>
  <path d="m865.23,52.22c-4.32,4.92-10.5,8.1-14.64,8.1-1.5,0-3-.48-3-2.22,0-1.02,1.38-1.92,2.64-2.88,7.26-5.52,7.26-10.26,7.26-19.8,0-4.68-.12-21.36-6.96-24.78-1.8-.9-2.94-1.56-2.94-3.06s.66-2.4,3.9-2.4,10.86,3.36,14.28,8.52c3.42,5.22,4.98,12.54,4.98,19.32,0,7.5-1.32,14.4-5.52,19.2Z"/>
</svg>