<?xml version="1.0" encoding="UTF-8"?>
<svg id="Layer_1" data-name="Layer 1" xmlns="http://www.w3.org/2000/svg" viewBox="0 0 472.58 76.23">
  <path d="m43.06,32.14c3.22,0,3.36-.77,3.36-6.51,0-7.98-3.64-4.41-3.64-8.47,0-2.45,1.4-3.36,4.13-3.36,2.24,0,5.39.21,8.54.21s6.37-.21,9.45-.21c2.24,0,2.73,1.33,2.73,3.64s-.63,2.8-1.75,3.22c-2.52.98-2.52,5.11-2.52,17.15,0,10.08,0,15.47,2.73,17.15.91.56,2.03.63,2.03,3.5,0,2.24-.35,3.36-2.52,3.36-3.43,0-6.86-.21-10.29-.21s-6.86.21-9.59.21c-2.24,0-3.01-.77-3.01-3.99,0-1.47.84-2.24,1.75-2.94,1.54-1.19,1.96-1.96,1.96-9.94,0-3.78-.56-4.34-2.24-4.34h-11.62c-1.68,0-2.31.56-2.31,4.34,0,8.47,1.4,9.17,3.57,10.01,2.52.98,2.87,1.19,2.87,3.71,0,2.38-.49,3.15-2.8,3.15-3.08,0-6.86-.21-10.64-.21s-7.56.21-12.18.21c-2.17,0-2.52-1.12-2.52-3.36,0-2.87,1.12-2.94,2.03-3.5,2.73-1.68,2.73-7.07,2.73-17.15,0-12.04,0-16.17-2.52-17.15-1.12-.42-1.75-.91-1.75-3.22s.49-3.64,2.73-3.64c4.62,0,7.56.21,10.5.21s5.88-.21,9.52-.21c2.31,0,3.64.14,3.64,3.36,0,4.76-5.18.21-5.18,8.47,0,5.74.21,6.51,3.43,6.51h9.38Z"/>
  <path d="m88.28,44.81c.98,4.62,3.22,8.26,8.4,8.26,4.62,0,8.05-4.06,9.38-4.06.91,0,1.12.56,1.12,1.75,0,9.52-11.69,11.55-18.9,11.55-10.57,0-16.1-7.42-16.1-16.87,0-10.57,8.75-20.44,19.53-20.44,11.69,0,15.19,8.82,15.19,13.02,0,1.05-1.47,2.1-3.36,2.59l-15.26,4.2Zm1.82-12.95c-2.24,0-3.22,2.38-3.22,4.27s.35,2.8,1.4,2.8c.7,0,5.32-.98,5.32-3.36,0-1.96-1.4-3.71-3.5-3.71Z"/>
  <path d="m115.86,25.42c0-3.22-1.47-3.92-2.31-4.55-.77-.63-1.54-.98-1.54-2.66,0-3.43,11.62-7,15.61-7,3.01,0,3.71.56,3.71,1.68v33.32c0,6.86.28,8.05,2.31,9.31.91.56,1.68,1.12,1.68,3.08,0,.77-.14,3.22-2.17,3.22-3.22,0-6.44-.21-9.66-.21s-6.44.21-9.66.21c-2.03,0-2.59-1.19-2.59-3.85,0-1.54.35-1.82,2.03-2.45,2.31-.84,2.59-3.15,2.59-18.34v-11.76Z"/>
  <path d="m143.09,25.42c0-3.22-1.47-3.92-2.31-4.55-.77-.63-1.54-.98-1.54-2.66,0-3.43,11.62-7,15.61-7,3.01,0,3.71.56,3.71,1.68v33.32c0,6.86.28,8.05,2.31,9.31.91.56,1.68,1.12,1.68,3.08,0,.77-.14,3.22-2.17,3.22-3.22,0-6.44-.21-9.66-.21s-6.44.21-9.66.21c-2.03,0-2.59-1.19-2.59-3.85,0-1.54.35-1.82,2.03-2.45,2.31-.84,2.59-3.15,2.59-18.34v-11.76Z"/>
  <path d="m185.44,25c11.48,0,19.6,6.02,19.6,18.06s-8.89,19.25-20.58,19.25-19.11-5.95-19.11-17.64,7.98-19.67,20.09-19.67Zm-3.99,15.47c0,12.11,2.31,14.84,4.55,14.84,1.89,0,2.94-2.24,2.94-8.47,0-12.11-2.31-14.84-4.62-14.84-1.82,0-2.87,2.24-2.87,8.47Z"/>
  <path d="m217.78,47.61c6.3,0,8.82,5.6,8.82,10.29,0,9.45-6.65,15.33-12.11,15.33-2.24,0-3.43-.77-3.43-2.94,0-1.26,1.19-2.1,2.38-3.15,1.19-1.05,2.38-2.24,2.38-3.99,0-1.05-1.82-1.26-3.22-2.1-2.03-1.12-3.29-3.36-3.29-5.53,0-4.69,3.92-7.91,8.47-7.91Z"/>
  <path d="m256.28,34.31c0-1.82-2.94-2.03-2.94-4.48,0-1.96,3.5-3.36,7.77-6.23,4.41-2.94,8.4-5.67,9.38-5.67,1.26,0,1.47.98,1.47,2.45,0,4.13,0,5.18.84,5.18,1.54,0,4.97-.14,6.37-.14.91,0,1.12.7,1.12,1.47,0,1.4-.77,3.99-1.12,5.18-.28,1.05-1.33,1.47-4.13,1.47h-3.29v11.13c0,7.28,1.61,8.61,3.43,8.61,1.12,0,2.17-.14,3.15-.14,1.26,0,1.96.14,1.96,1.61,0,5.46-8.4,7.56-12.53,7.56-7.63,0-11.48-3.5-11.48-11.2v-16.8Z"/>
  <path d="m286.38,24.23c0-1.82-1.05-2.8-2.17-3.36-1.05-.49-2.03-.91-2.03-2.73,0-3.64,14.42-6.93,16.73-6.93,1.89,0,2.94,1.19,2.94,3.08,0,4.97-.42,10.08-.35,14.98,3.22-2.73,7.35-4.27,11.27-4.27,4.69,0,13.3,1.33,13.3,11.55,0,6.09.21,9.1.21,12.11,0,2.03,0,6.02,2.03,6.86,1.19.49,1.75.77,1.75,2.8,0,1.26-.49,3.5-1.89,3.5-3.01,0-6.02-.21-9.03-.21s-6.02.21-9.03.21c-1.82,0-2.1-2.24-2.1-3.64,0-2.38,1.33-1.54,1.75-2.66.77-1.96.84-3.01.84-9.66,0-4.69,0-11.69-6.09-11.69-1.47,0-2.8.77-2.8,2.38,0,4.2.14,9.03.14,12.46,0,2.38.07,5.81,1.68,6.51,1.4.63,1.75,1.12,1.75,2.94,0,2.24-.35,3.36-2.73,3.36-2.94,0-5.88-.21-8.82-.21s-5.88.21-8.82.21c-2.31,0-2.52-.84-2.52-2.94,0-2.45.77-2.66,2.31-3.36,1.68-.77,1.68-6.65,1.68-17.01v-14.28Z"/>
  <path d="m348.89,44.81c.98,4.62,3.22,8.26,8.4,8.26,4.62,0,8.05-4.06,9.38-4.06.91,0,1.12.56,1.12,1.75,0,9.52-11.69,11.55-18.9,11.55-10.57,0-16.1-7.42-16.1-16.87,0-10.57,8.75-20.44,19.53-20.44,11.69,0,15.19,8.82,15.19,13.02,0,1.05-1.47,2.1-3.36,2.59l-15.26,4.2Zm1.82-12.95c-2.24,0-3.22,2.38-3.22,4.27s.35,2.8,1.4,2.8c.7,0,5.32-.98,5.32-3.36,0-1.96-1.4-3.71-3.5-3.71Z"/>
  <path d="m375.28,35.78c0-.91-1.75-1.19-2.52-1.68-.84-.56-1.26-1.05-1.26-2.24,0-2.52,3.36-2.8,7.49-4.2,4.13-1.4,8.61-2.66,10.22-2.66s1.82.7,1.82,1.96c0,.42-.21,1.4-.21,2.03,0,.35.07.63.28.63,1.05,0,4.27-4.62,8.33-4.62,4.9,0,6.16,5.88,6.16,9.8,0,2.38-.21,6.86-3.64,6.86-3.15,0-5.67-6.09-9.31-6.09-1.12,0-1.89.42-1.89,1.75v12.18c0,3.43.84,4.83,4.27,6.02,1.82.63,2.52,1.12,2.52,3.15,0,1.54-.28,3.15-2.17,3.15-2.66,0-6.16-.21-9.66-.21s-7,.21-10.5.21c-2.87,0-3.78-.77-3.78-3.64,0-1.89.63-2.24,1.68-2.66,2.17-.84,2.17-4.83,2.17-6.65v-13.09Z"/>
  <path d="m424.14,44.81c.98,4.62,3.22,8.26,8.4,8.26,4.62,0,8.05-4.06,9.38-4.06.91,0,1.12.56,1.12,1.75,0,9.52-11.69,11.55-18.9,11.55-10.57,0-16.1-7.42-16.1-16.87,0-10.57,8.75-20.44,19.53-20.44,11.69,0,15.19,8.82,15.19,13.02,0,1.05-1.47,2.1-3.36,2.59l-15.26,4.2Zm1.82-12.95c-2.24,0-3.22,2.38-3.22,4.27s.35,2.8,1.4,2.8c.7,0,5.32-.98,5.32-3.36,0-1.96-1.4-3.71-3.5-3.71Z"/>
  <path d="m458.37,12.82c4.13,0,7.91,1.47,7.91,6.23,0,6.65-2.17,24.99-8.33,24.99-4.2,0-6.51-19.32-6.51-25.55,0-4.55,2.59-5.67,6.93-5.67Zm.35,49.21c-4.34,0-7-2.17-7-6.65s2.52-6.65,7-6.65,7,2.17,7,6.65-2.52,6.65-7,6.65Z"/>
</svg>