<?xml version="1.0" encoding="UTF-8"?>
<svg id="Layer_1" data-name="Layer 1" xmlns="http://www.w3.org/2000/svg" viewBox="0 0 322.03 51.55">
  <path d="m31.42,27.32c0,4.02,0,7.26.48,9.3,1.14,4.74,4.74,1.26,4.74,6.18,0,2.76-1.38,2.76-4.08,2.76-3.12,0-6.42-.18-8.46-.18s-5.34.18-8.46.18c-2.7,0-4.08,0-4.08-2.76,0-4.92,3.6-1.44,4.74-6.18.6-2.04.6-5.28.6-9.3v-10.62c0-2.76-.18-5.4-2.7-5.4-4.74,0-4.14,7.74-7.26,7.74-2.16,0-2.52-.54-2.52-3.78,0-1.98.12-7.68.12-9.3,0-1.14.96-1.56,3-1.56,5.58,0,11.16.18,16.56.18s10.98-.18,16.56-.18c2.04,0,3,.42,3,1.56,0,1.62.12,7.32.12,9.3,0,3.24-.36,3.78-2.52,3.78-3.12,0-2.52-7.74-7.26-7.74-2.52,0-2.58,2.64-2.58,5.4v10.62Z"/>
  <path d="m56.32,7.82c1.74-4.2,2.16-4.26,6.6-4.26s4.86.06,6.6,4.26l12.3,27.84c.48,1.14,1.92,3.06,3.6,4.02.96.54,1.56.72,1.56,2.28,0,2.64-.84,3.6-4.2,3.6-2.16,0-5.04-.18-8.94-.18s-6.42.18-8.94.18c-1.8,0-2.64-1.56-2.64-3,0-1.74.36-1.98,1.5-2.88,1.2-.96,1.86-1.32,1.86-2.82,0-.9-.6-1.86-1.74-1.86h-9.24c-1.26,0-1.98,1.02-1.98,2.7,0,1.2.48,1.56,2.1,1.98,1.56.42,1.86.54,1.86,2.88,0,1.92-.96,3-3.54,3-1.92,0-3.84-.18-5.76-.18s-3.9.18-5.82.18c-2.04,0-2.52-.6-2.52-2.76,0-1.74.48-2.64,1.8-3.12,2.22-.78,3.06-1.86,4.14-4.38l11.4-27.48Zm6.06,20.22c-.54-2.52-2.04-7.14-3.42-7.14s-2.88,4.62-3.42,7.14h6.84Z"/>
  <path d="m90.88,16.4c0-4.26-.6-5.4-1.86-6.12-.66-.36-1.56-.24-1.56-1.92,0-2.34,0-3.96,2.16-3.96,3.54,0,7.08.18,10.62.18s7.08-.18,10.62-.18c12.12,0,20.82,7.5,20.82,19.98-.18,12.72-7.26,21.18-20.4,21.18-3.78,0-7.56-.18-11.34-.18s-7.56.18-11.34.18c-1.44,0-1.44-1.86-1.44-2.88,0-2.04.3-2.34,2.04-3,1.08-.42,1.68-1.44,1.68-5.94v-17.34Zm14.52,14.7c0,5.76,1.02,7.38,3.24,7.38,6.18,0,7.44-7.38,7.44-12.48,0-8.4-3.72-15-9.18-15-1.2,0-1.5,2.22-1.5,8.22v11.88Z"/>
  <path d="m149.62,7.82c1.74-4.2,2.16-4.26,6.6-4.26s4.86.06,6.6,4.26l12.3,27.84c.48,1.14,1.92,3.06,3.6,4.02.96.54,1.56.72,1.56,2.28,0,2.64-.84,3.6-4.2,3.6-2.16,0-5.04-.18-8.94-.18s-6.42.18-8.94.18c-1.8,0-2.64-1.56-2.64-3,0-1.74.36-1.98,1.5-2.88,1.2-.96,1.86-1.32,1.86-2.82,0-.9-.6-1.86-1.74-1.86h-9.24c-1.26,0-1.98,1.02-1.98,2.7,0,1.2.48,1.56,2.1,1.98,1.56.42,1.86.54,1.86,2.88,0,1.92-.96,3-3.54,3-1.92,0-3.84-.18-5.76-.18s-3.9.18-5.82.18c-2.04,0-2.52-.6-2.52-2.76,0-1.74.48-2.64,1.8-3.12,2.22-.78,3.06-1.86,4.14-4.38l11.4-27.48Zm6.06,20.22c-.54-2.52-2.04-7.14-3.42-7.14s-2.88,4.62-3.42,7.14h6.84Z"/>
  <path d="m195.16,7.82c1.74-4.2,2.16-4.26,6.6-4.26s4.86.06,6.6,4.26l12.3,27.84c.48,1.14,1.92,3.06,3.6,4.02.96.54,1.56.72,1.56,2.28,0,2.64-.84,3.6-4.2,3.6-2.16,0-5.04-.18-8.94-.18s-6.42.18-8.94.18c-1.8,0-2.64-1.56-2.64-3,0-1.74.36-1.98,1.5-2.88,1.2-.96,1.86-1.32,1.86-2.82,0-.9-.6-1.86-1.74-1.86h-9.24c-1.26,0-1.98,1.02-1.98,2.7,0,1.2.48,1.56,2.1,1.98,1.56.42,1.86.54,1.86,2.88,0,1.92-.96,3-3.54,3-1.92,0-3.84-.18-5.76-.18s-3.9.18-5.82.18c-2.04,0-2.52-.6-2.52-2.76,0-1.74.48-2.64,1.8-3.12,2.22-.78,3.06-1.86,4.14-4.38l11.4-27.48Zm6.06,20.22c-.54-2.52-2.04-7.14-3.42-7.14s-2.88,4.62-3.42,7.14h6.84Z"/>
  <path d="m240.7,7.82c1.74-4.2,2.16-4.26,6.6-4.26s4.86.06,6.6,4.26l12.3,27.84c.48,1.14,1.92,3.06,3.6,4.02.96.54,1.56.72,1.56,2.28,0,2.64-.84,3.6-4.2,3.6-2.16,0-5.04-.18-8.94-.18s-6.42.18-8.94.18c-1.8,0-2.64-1.56-2.64-3,0-1.74.36-1.98,1.5-2.88,1.2-.96,1.86-1.32,1.86-2.82,0-.9-.6-1.86-1.74-1.86h-9.24c-1.26,0-1.98,1.02-1.98,2.7,0,1.2.48,1.56,2.1,1.98,1.56.42,1.86.54,1.86,2.88,0,1.92-.96,3-3.54,3-1.92,0-3.84-.18-5.76-.18s-3.9.18-5.82.18c-2.04,0-2.52-.6-2.52-2.76,0-1.74.48-2.64,1.8-3.12,2.22-.78,3.06-1.86,4.14-4.38l11.4-27.48Zm6.06,20.22c-.54-2.52-2.04-7.14-3.42-7.14s-2.88,4.62-3.42,7.14h6.84Z"/>
  <path d="m286.24,7.82c1.74-4.2,2.16-4.26,6.6-4.26s4.86.06,6.6,4.26l12.3,27.84c.48,1.14,1.92,3.06,3.6,4.02.96.54,1.56.72,1.56,2.28,0,2.64-.84,3.6-4.2,3.6-2.16,0-5.04-.18-8.94-.18s-6.42.18-8.94.18c-1.8,0-2.64-1.56-2.64-3,0-1.74.36-1.98,1.5-2.88,1.2-.96,1.86-1.32,1.86-2.82,0-.9-.6-1.86-1.74-1.86h-9.24c-1.26,0-1.98,1.02-1.98,2.7,0,1.2.48,1.56,2.1,1.98,1.56.42,1.86.54,1.86,2.88,0,1.92-.96,3-3.54,3-1.92,0-3.84-.18-5.76-.18s-3.9.18-5.82.18c-2.04,0-2.52-.6-2.52-2.76,0-1.74.48-2.64,1.8-3.12,2.22-.78,3.06-1.86,4.14-4.38l11.4-27.48Zm6.06,20.22c-.54-2.52-2.04-7.14-3.42-7.14s-2.88,4.62-3.42,7.14h6.84Z"/>
</svg>