<?xml version="1.0" encoding="UTF-8"?>
<svg id="Layer_1" data-name="Layer 1" xmlns="http://www.w3.org/2000/svg" viewBox="0 0 1028.67 78.7">
  <path d="m25.52,40.69c0,10.08.21,10.36,5.74,10.36,11.27,0,9.1-9.59,14.49-9.59,2.1,0,2.59,1.12,2.59,3.08,0,4.06-.7,8.05-1.05,11.97-.21,2.38-.42,3.01-2.8,3.01-6.3,0-12.6-.21-18.9-.21s-12.6.21-18.2.21c-2.1,0-2.8-.56-2.8-3.57,0-4.41,3.78-.91,3.92-7.14.07-2.94.07-9.94.07-13.3,0-3.99-.14-8.12-.07-12.67.14-7.35-3.92-2.94-3.92-7.63,0-3.36,1.26-3.71,4.06-3.71,3.01,0,6.02.21,9.03.21s6.02-.21,9.03-.21c2.24,0,3.99.21,3.99,2.8,0,1.33-.14,3.15-3.5,4.06-1.68.49-1.68,2.59-1.68,6.58v15.75Z"/>
  <path d="m71.58,22.69c11.48,0,19.6,6.02,19.6,18.06s-8.89,19.25-20.58,19.25-19.11-5.95-19.11-17.64,7.98-19.67,20.09-19.67Zm-3.99,15.47c0,12.11,2.31,14.84,4.55,14.84,1.89,0,2.94-2.24,2.94-8.47,0-12.11-2.31-14.84-4.62-14.84-1.82,0-2.87,2.24-2.87,8.47Z"/>
  <path d="m114.35,22.69c11.48,0,19.6,6.02,19.6,18.06s-8.89,19.25-20.58,19.25-19.11-5.95-19.11-17.64,7.98-19.67,20.09-19.67Zm-3.99,15.47c0,12.11,2.31,14.84,4.55,14.84,1.89,0,2.94-2.24,2.94-8.47,0-12.11-2.31-14.84-4.62-14.84-1.82,0-2.87,2.24-2.87,8.47Z"/>
  <path d="m139.48,22.27c0-3.01-1.05-3.43-1.96-3.99-.84-.56-1.75-.7-1.75-2.52,0-3.5,11.83-6.86,15.61-6.86,2.87,0,3.57.84,3.57,4.69,0,7-.21,13.93-.21,20.93,0,2.1,0,4.2.49,4.2,1.33,0,8.96-6.16,8.96-8.26,0-.35-.14-.63-.42-.77-1.89-.91-2.52-.77-2.52-3.29,0-2.03.49-3.22,2.1-3.22,3.01,0,6.23.21,9.45.21s6.44-.21,9.66-.21c1.33,0,1.61.77,1.61,2.1,0,2.87-.98,4.06-3.71,4.41-4.55.56-8.26,4.06-11.62,6.79,2.45,3.5,10.57,14.77,15.26,16.73,1.19.49,1.54.98,1.54,2.94,0,2.73-.21,3.36-2.59,3.36-2.17,0-4.34-.21-6.51-.21s-4.34.21-6.93.21c-.98,0-1.89-.56-2.8-1.75l-7.35-9.31c-1.12-1.4-1.82-2.1-2.38-2.1-1.19,0-1.54.49-1.54,2.87,0,2.66,1.19,3.36,2.66,3.99.98.42,2.17.77,2.17,2.59,0,3.15-1.96,3.71-4.76,3.71s-5.46-.21-8.19-.21-5.46.21-8.19.21-3.29-.98-3.29-3.64c0-1.47.56-1.89,1.47-2.66,1.12-.91,2.17-3.85,2.17-8.26v-22.68Z"/>
  <path d="m229.29,37.26c.84-.28,1.19-.49,1.19-.7,0-.49.14-2.03.14-3.71,0-2.52-.84-3.29-4.62-3.29-3.29,0-5.53,1.89-7.21,3.78-1.75,1.96-3.01,3.85-4.55,3.85-2.59,0-3.22-3.57-3.22-5.53,0-7.63,14.07-8.96,19.46-8.96,9.17,0,15.61,1.61,15.61,11.83,0,4.27-.49,8.61-.49,12.88,0,1.82.35,2.66,1.96,2.66.77,0,1.47-.49,2.17-.49.63,0,.98.56.98,1.33,0,7-9.52,9.1-14.98,9.1-2.8,0-4.2-.91-5.25-3.43-3.57,1.89-7.98,3.43-12.04,3.43-5.67,0-8.89-2.87-8.89-8.61,0-6.09,3.36-9.24,9.94-11.2l9.8-2.94Zm1.33,6.58c-2.45,0-5.6,1.19-5.6,5.04,0,1.26.77,2.24,2.1,2.24,2.8,0,3.5-2.45,3.5-3.99v-3.29Z"/>
  <path d="m255.89,32.01c0-1.82-2.94-2.03-2.94-4.48,0-1.96,3.5-3.36,7.77-6.23,4.41-2.94,8.4-5.67,9.38-5.67,1.26,0,1.47.98,1.47,2.45,0,4.13,0,5.18.84,5.18,1.54,0,4.97-.14,6.37-.14.91,0,1.12.7,1.12,1.47,0,1.4-.77,3.99-1.12,5.18-.28,1.05-1.33,1.47-4.13,1.47h-3.29v11.13c0,7.28,1.61,8.61,3.43,8.61,1.12,0,2.17-.14,3.15-.14,1.26,0,1.96.14,1.96,1.61,0,5.46-8.4,7.56-12.53,7.56-7.63,0-11.48-3.5-11.48-11.2v-16.8Z"/>
  <path d="m324.28,49.65c0,2.52.49,2.94,1.68,3.57.98.56,1.47,1.26,1.47,2.87,0,1.89-.49,3.43-2.73,3.43-2.52,0-5.04-.21-7.56-.21s-5.04.21-9.31.21c-1.61,0-1.82-1.82-1.82-3.99,0-1.26.21-1.96.91-2.31,2.1-1.05,2.59-3.99,2.59-12.81,0-5.6-.28-6.3-2.1-7.63-.77-.56-1.12-1.05-1.12-2.52,0-2.45,3.92-3.57,7.49-5.04,4.62-1.89,7.21-2.52,8.68-2.52s1.4,1.4,1.4,2.45c0,1.19-.07,1.96.14,2.8,3.57-2.59,7.49-5.25,12.04-5.25,3.92,0,7.21,1.61,9.1,5.18,3.57-3.29,6.44-5.18,11.34-5.18,8.05,0,12.6,5.53,12.6,12.95,0,14,.21,16.66,2.24,17.57,1.61.7,2.1,1.26,2.1,3.22,0,2.31-1.47,3.08-3.57,3.08-2.66,0-5.32-.21-7.98-.21s-5.32.21-8.89.21c-1.4,0-1.61-1.82-1.61-3.99,0-1.26.21-1.96.91-2.31,1.89-.98,2.03-5.81,2.03-9.59,0-9.66-2.24-11.76-5.25-11.76-1.61,0-2.38.84-2.38,6.02v10.08c0,2.52.35,4.2,1.33,5.25.7.77,1.12,1.54,1.12,3.01,0,2.03-.21,3.29-2.52,3.29-2.59,0-5.18-.21-7.77-.21s-5.18.21-7.77.21c-1.4,0-1.61-1.82-1.61-3.99,0-1.26.21-1.96.91-2.31,1.54-.77,1.54-3.15,1.54-12.46,0-4.2-.42-8.89-5.39-8.89-1.33,0-2.24.42-2.24,7.35v10.43Z"/>
  <path d="m391.9,42.51c.98,4.62,3.22,8.26,8.4,8.26,4.62,0,8.05-4.06,9.38-4.06.91,0,1.12.56,1.12,1.75,0,9.52-11.69,11.55-18.9,11.55-10.57,0-16.1-7.42-16.1-16.87,0-10.57,8.75-20.44,19.53-20.44,11.69,0,15.19,8.82,15.19,13.02,0,1.05-1.47,2.1-3.36,2.59l-15.26,4.2Zm1.82-12.95c-2.24,0-3.22,2.38-3.22,4.27s.35,2.8,1.4,2.8c.7,0,5.32-.98,5.32-3.36,0-1.96-1.4-3.71-3.5-3.71Z"/>
  <path d="m455.88,49.65c0,2.52.49,2.94,1.68,3.57.98.56,1.47,1.26,1.47,2.87,0,1.89-.49,3.43-2.73,3.43-2.52,0-5.04-.21-7.56-.21s-5.04.21-9.31.21c-1.61,0-1.82-1.82-1.82-3.99,0-1.26.21-1.96.91-2.31,2.1-1.05,2.59-3.99,2.59-12.81,0-5.6-.28-6.3-2.1-7.63-.77-.56-1.12-1.05-1.12-2.52,0-2.45,3.92-3.57,7.49-5.04,4.62-1.89,7.21-2.52,8.68-2.52s1.4,1.4,1.4,2.45c0,1.19-.07,1.96.14,2.8,3.57-2.59,7.49-5.25,12.04-5.25,3.92,0,7.21,1.61,9.1,5.18,3.57-3.29,6.44-5.18,11.34-5.18,8.05,0,12.6,5.53,12.6,12.95,0,14,.21,16.66,2.24,17.57,1.61.7,2.1,1.26,2.1,3.22,0,2.31-1.47,3.08-3.57,3.08-2.66,0-5.32-.21-7.98-.21s-5.32.21-8.89.21c-1.4,0-1.61-1.82-1.61-3.99,0-1.26.21-1.96.91-2.31,1.89-.98,2.03-5.81,2.03-9.59,0-9.66-2.24-11.76-5.25-11.76-1.61,0-2.38.84-2.38,6.02v10.08c0,2.52.35,4.2,1.33,5.25.7.77,1.12,1.54,1.12,3.01,0,2.03-.21,3.29-2.52,3.29-2.59,0-5.18-.21-7.77-.21s-5.18.21-7.77.21c-1.4,0-1.61-1.82-1.61-3.99,0-1.26.21-1.96.91-2.31,1.54-.77,1.54-3.15,1.54-12.46,0-4.2-.42-8.89-5.39-8.89-1.33,0-2.24.42-2.24,7.35v10.43Z"/>
  <path d="m527.28,22.69c11.48,0,19.6,6.02,19.6,18.06s-8.89,19.25-20.58,19.25-19.11-5.95-19.11-17.64,7.98-19.67,20.09-19.67Zm-3.99,15.47c0,12.11,2.31,14.84,4.55,14.84,1.89,0,2.94-2.24,2.94-8.47,0-12.11-2.31-14.84-4.62-14.84-1.82,0-2.87,2.24-2.87,8.47Z"/>
  <path d="m553.74,33.48c0-.91-1.75-1.19-2.52-1.68-.84-.56-1.26-1.05-1.26-2.24,0-2.52,3.36-2.8,7.49-4.2,4.13-1.4,8.61-2.66,10.22-2.66s1.82.7,1.82,1.96c0,.42-.21,1.4-.21,2.03,0,.35.07.63.28.63,1.05,0,4.27-4.62,8.33-4.62,4.9,0,6.16,5.88,6.16,9.8,0,2.38-.21,6.86-3.64,6.86-3.15,0-5.67-6.09-9.31-6.09-1.12,0-1.89.42-1.89,1.75v12.18c0,3.43.84,4.83,4.27,6.02,1.82.63,2.52,1.12,2.52,3.15,0,1.54-.28,3.15-2.17,3.15-2.66,0-6.16-.21-9.66-.21s-7,.21-10.5.21c-2.87,0-3.78-.77-3.78-3.64,0-1.89.63-2.24,1.68-2.66,2.17-.84,2.17-4.83,2.17-6.65v-13.09Z"/>
  <path d="m602.6,42.51c.98,4.62,3.22,8.26,8.4,8.26,4.62,0,8.05-4.06,9.38-4.06.91,0,1.12.56,1.12,1.75,0,9.52-11.69,11.55-18.9,11.55-10.57,0-16.1-7.42-16.1-16.87,0-10.57,8.75-20.44,19.53-20.44,11.69,0,15.19,8.82,15.19,13.02,0,1.05-1.47,2.1-3.36,2.59l-15.26,4.2Zm1.82-12.95c-2.24,0-3.22,2.38-3.22,4.27s.35,2.8,1.4,2.8c.7,0,5.32-.98,5.32-3.36,0-1.96-1.4-3.71-3.5-3.71Z"/>
  <path d="m667.56,22.69c5.74,0,12.81,1.19,12.81,6.51,0,3.08-1.05,6.44-3.99,6.44-4.62,0-6.3-6.09-9.94-6.09-2.24,0-2.66,3.71-2.66,5.53,0,6.23.98,14.84,8.96,14.84,2.87,0,4.76-2.03,6.37-2.03,1.47,0,1.89,1.19,1.89,2.45,0,6.23-11.2,9.66-17.01,9.66-11.76,0-15.68-7.35-15.68-17.57s6.16-19.74,19.25-19.74Z"/>
  <path d="m705.78,37.26c.84-.28,1.19-.49,1.19-.7,0-.49.14-2.03.14-3.71,0-2.52-.84-3.29-4.62-3.29-3.29,0-5.53,1.89-7.21,3.78-1.75,1.96-3.01,3.85-4.55,3.85-2.59,0-3.22-3.57-3.22-5.53,0-7.63,14.07-8.96,19.46-8.96,9.17,0,15.61,1.61,15.61,11.83,0,4.27-.49,8.61-.49,12.88,0,1.82.35,2.66,1.96,2.66.77,0,1.47-.49,2.17-.49.63,0,.98.56.98,1.33,0,7-9.52,9.1-14.98,9.1-2.8,0-4.2-.91-5.25-3.43-3.57,1.89-7.98,3.43-12.04,3.43-5.67,0-8.89-2.87-8.89-8.61,0-6.09,3.36-9.24,9.94-11.2l9.8-2.94Zm1.33,6.58c-2.45,0-5.6,1.19-5.6,5.04,0,1.26.77,2.24,2.1,2.24,2.8,0,3.5-2.45,3.5-3.99v-3.29Z"/>
  <path d="m733.35,33.48c0-.91-1.75-1.19-2.52-1.68-.84-.56-1.26-1.05-1.26-2.24,0-2.52,3.36-2.8,7.49-4.2,4.13-1.4,8.61-2.66,10.22-2.66s1.82.7,1.82,1.96c0,.42-.21,1.4-.21,2.03,0,.35.07.63.28.63,1.05,0,4.27-4.62,8.33-4.62,4.9,0,6.16,5.88,6.16,9.8,0,2.38-.21,6.86-3.64,6.86-3.15,0-5.67-6.09-9.31-6.09-1.12,0-1.89.42-1.89,1.75v12.18c0,3.43.84,4.83,4.27,6.02,1.82.63,2.52,1.12,2.52,3.15,0,1.54-.28,3.15-2.17,3.15-2.66,0-6.16-.21-9.66-.21s-7,.21-10.5.21c-2.87,0-3.78-.77-3.78-3.64,0-1.89.63-2.24,1.68-2.66,2.17-.84,2.17-4.83,2.17-6.65v-13.09Z"/>
  <path d="m782.22,42.51c.98,4.62,3.22,8.26,8.4,8.26,4.62,0,8.05-4.06,9.38-4.06.91,0,1.12.56,1.12,1.75,0,9.52-11.69,11.55-18.9,11.55-10.57,0-16.1-7.42-16.1-16.87,0-10.57,8.75-20.44,19.53-20.44,11.69,0,15.19,8.82,15.19,13.02,0,1.05-1.47,2.1-3.36,2.59l-15.26,4.2Zm1.82-12.95c-2.24,0-3.22,2.38-3.22,4.27s.35,2.8,1.4,2.8c.7,0,5.32-.98,5.32-3.36,0-1.96-1.4-3.71-3.5-3.71Z"/>
  <path d="m824.57,49.3c0,2.24.35,3.43,1.33,3.92,1.96.91,3.01,1.05,3.01,3.36,0,1.61-.28,2.94-2.17,2.94-2.94,0-5.88-.21-8.82-.21s-5.88.21-8.82.21c-2.66,0-4.06-.14-4.06-3.08,0-2.66,1.68-2.03,2.94-3.22,1.12-1.05,1.12-5.67,1.12-12.11,0-3.78-.07-6.72-.14-9.73-.77-.14-1.82-.35-3.01-.7-1.05-.28-1.19-.63-1.19-2.03,0-1.89.42-5.11,2.03-5.11,1.05,0,2.17-.07,3.22-.14.77-9.45,10.71-14.49,19.32-14.49,2.59,0,7.84.35,7.84,3.99,0,2.1-2.17,7.91-5.39,7.91-2.31,0-2.38-5.04-4.48-5.04-2.8,0-2.8,5.46-2.8,7.63h3.71c1.96,0,2.45.21,2.45.77,0,1.54-.35,3.71-.91,6.02-.21.84-1.47,1.33-2.73,1.33h-2.45v17.78Z"/>
  <path d="m836.46,35.79c0-3.92-.7-5.53-1.47-6.09-1.75-1.26-3.01-1.26-3.01-3.57,0-2.59,1.61-2.94,3.99-2.94,2.38,0,4.76.21,7.14.21s4.76-.21,7.14-.21c1.47,0,2.1,1.05,2.1,2.66,0,3.92-.42,7.84-.42,11.76,0,8.82.84,12.53,5.88,12.53,2.59,0,3.08-1.19,3.08-3.15v-14.84c0-1.75-1.12-2.1-1.75-2.45-1.4-.77-2.45-.77-2.45-3.36,0-2.1.63-3.15,2.1-3.15,2.45,0,4.9.21,7.35.21s4.9-.21,7.35-.21c2.24,0,2.87,1.26,2.87,3.36,0,7.49-.21,11.76-.21,19.11,0,3.08,1.26,4.2,2.52,4.83,1.26.7,2.66.91,2.66,2.38,0,1.96-1.12,2.87-3.01,3.5l-13.86,4.83c-.91.35-1.61.42-2.38.42-1.05,0-1.05-1.54-1.05-2.45v-4.13c-4.2,3.71-7.56,4.97-13.23,4.97-7.14,0-11.34-2.8-11.34-10.29v-13.93Z"/>
  <path d="m888.82,23.11c0-3.22-1.47-3.92-2.31-4.55-.77-.63-1.54-.98-1.54-2.66,0-3.43,11.62-7,15.61-7,3.01,0,3.71.56,3.71,1.68v33.32c0,6.86.28,8.05,2.31,9.31.91.56,1.68,1.12,1.68,3.08,0,.77-.14,3.22-2.17,3.22-3.22,0-6.44-.21-9.66-.21s-6.44.21-9.66.21c-2.03,0-2.59-1.19-2.59-3.85,0-1.54.35-1.82,2.03-2.45,2.31-.84,2.59-3.15,2.59-18.34v-11.76Z"/>
  <path d="m916.05,23.11c0-3.22-1.47-3.92-2.31-4.55-.77-.63-1.54-.98-1.54-2.66,0-3.43,11.62-7,15.61-7,3.01,0,3.71.56,3.71,1.68v33.32c0,6.86.28,8.05,2.31,9.31.91.56,1.68,1.12,1.68,3.08,0,.77-.14,3.22-2.17,3.22-3.22,0-6.44-.21-9.66-.21s-6.44.21-9.66.21c-2.03,0-2.59-1.19-2.59-3.85,0-1.54.35-1.82,2.03-2.45,2.31-.84,2.59-3.15,2.59-18.34v-11.76Z"/>
  <path d="m968.62,45.8c-2.17,3.78-3.57,6.3-6.16,11.55-5.74,11.69-12.04,17.5-18.55,17.5-3.43,0-6.51-1.33-6.51-5.25,0-2.8,1.05-7,4.55-7,2.87,0,3.01,1.54,4.97,1.54,1.75,0,5.95-2.45,5.95-4.62,0-1.68-2.66-8.96-5.74-15.82-1.33-2.94-5.11-12.04-8.4-14.21-1.89-1.26-1.96-1.75-1.96-3.5,0-2.03.56-2.8,2.66-2.8,2.87,0,5.74.21,8.61.21s5.74-.21,8.61-.21c2.17,0,3.29.63,3.29,3.01,0,1.75-.56,2.31-1.26,3.29-.28.42-.91.77-.91,1.47,0,1.26.98,2.73,2.24,5.39,1.26,2.66,2.24,4.83,2.8,4.83,1.4,0,4.48-7.84,4.48-9.38s-.91-2.66-1.75-3.43c-.91-.84-1.82-1.68-1.82-2.66,0-1.61.91-2.52,2.45-2.52,2.17,0,4.34.21,6.51.21s4.34-.21,6.51-.21c1.54,0,3.22.21,3.22,2.31s-.98,2.73-3.64,3.99c-1.19.56-1.96,1.61-2.59,2.8l-7.56,13.51Z"/>
  <path d="m994.03,10.51c4.13,0,7.91,1.47,7.91,6.23,0,6.65-2.17,24.99-8.33,24.99-4.2,0-6.51-19.32-6.51-25.55,0-4.55,2.59-5.67,6.93-5.67Zm.35,49.21c-4.34,0-7-2.17-7-6.65s2.52-6.65,7-6.65,7,2.17,7,6.65-2.52,6.65-7,6.65Z"/>
</svg>