<svg width="144" height="138" viewBox="0 0 144 138" fill="none" xmlns="http://www.w3.org/2000/svg">
<circle cx="62.5" cy="62.5" r="61" fill="#8A8A8A" stroke="black" stroke-width="3"/>
<path d="M48.0005 4L43.7177 11.1583C24.803 42.773 24.803 82.227 43.7177 113.842L48.0005 121" stroke="black" stroke-width="3" stroke-linecap="round" stroke-linejoin="round"/>
<path d="M3.00049 76L10.9803 80.7338C42.4347 99.3932 81.5663 99.3932 113.021 80.7338L121 76" stroke="black" stroke-width="3" stroke-linecap="round" stroke-linejoin="round"/>
<path d="M3.00049 49L11.7985 43.8247C43.0934 25.416 81.9076 25.4159 113.203 43.8247L122 49" stroke="black" stroke-width="3" stroke-linecap="round" stroke-linejoin="round"/>
<path d="M76.0005 4L80.2832 11.1583C99.198 42.773 99.198 82.227 80.2832 113.842L76.0005 121" stroke="black" stroke-width="3" stroke-linecap="round" stroke-linejoin="round"/>
<path d="M63.0005 123L63.0002 62.5L63 2" stroke="black" stroke-width="3" stroke-linecap="round" stroke-linejoin="round"/>
<path d="M74.7609 106.992L54.2101 100.647L139.856 77L114.217 127.646L96.2932 116.769L82.3899 130.142L74.7609 106.992Z" fill="#D9D9D9"/>
<path d="M74.7609 106.992L54.2101 100.647L139.856 77M74.7609 106.992L82.3899 130.142M74.7609 106.992L139.856 77M82.3899 130.142L86.435 110.787M82.3899 130.142L96.2932 116.769M86.435 110.787L139.856 77M86.435 110.787L96.2932 116.769M139.856 77L114.217 127.646L96.2932 116.769" stroke="black" stroke-width="2" stroke-linejoin="round"/>
<path d="M82.2407 127.629L75.5298 107.198L132.331 81.0783L86.0151 110.509L82.2407 127.629Z" fill="#5B5B5B"/>
<path d="M83.1516 128.533L86.926 111.413L95.294 116.813L83.1516 128.533Z" fill="#A6A6A6"/>
</svg>
