<?xml version="1.0" encoding="UTF-8"?>
<svg id="Layer_1" data-name="Layer 1" xmlns="http://www.w3.org/2000/svg" viewBox="0 0 112.04 107.26">
  <defs>
    <style>
      .cls-1 {
        fill: #fc4949;
      }
    </style>
  </defs>
  <circle class="cls-1" cx="55.52" cy="54.4" r="26.41"/>
  <path class="cls-1" d="m58.61,102.02c-.03-3.12-.05-6.25-.08-9.37v-1.35c-.02-1.57-1.38-3.07-3.01-3s-3.01,1.32-3,3c.03,3.12.05,6.25.08,9.37v1.35c.02,1.57,1.38,3.07,3.01,3s3.01-1.32,3-3h0Z"/>
  <path class="cls-1" d="m58.61,17.41c-.03-3.12-.05-6.25-.08-9.37v-1.35c-.02-1.57-1.38-3.07-3.01-3s-3.01,1.32-3,3c.03,3.12.05,6.25.08,9.37v1.35c.02,1.57,1.38,3.07,3.01,3s3.01-1.32,3-3h0Z"/>
  <path class="cls-1" d="m7.86,57.4c3.12-.03,6.25-.05,9.37-.08h1.35c1.57-.02,3.07-1.38,3-3.01s-1.32-3.01-3-3c-3.12.03-6.25.05-9.37.08h-1.35c-1.57.02-3.07,1.38-3,3.01s1.32,3.01,3,3h0Z"/>
  <path class="cls-1" d="m92.46,57.4c3.12-.03,6.25-.05,9.37-.08h1.35c1.57-.02,3.07-1.38,3-3.01s-1.32-3.01-3-3c-3.12.03-6.25.05-9.37.08h-1.35c-1.57.02-3.07,1.38-3,3.01s1.32,3.01,3,3h0Z"/>
  <path class="cls-1" d="m23.7,89.21c2.21-2.21,4.42-4.42,6.63-6.63.31-.31.63-.63.94-.94,1.11-1.11,1.19-3.15,0-4.24s-3.06-1.19-4.24,0c-2.21,2.21-4.42,4.42-6.63,6.63-.31.31-.63.63-.94.94-1.11,1.11-1.19,3.15,0,4.24s3.06,1.19,4.24,0h0Z"/>
  <path class="cls-1" d="m84.01,29.87c2.21-2.21,4.42-4.42,6.63-6.63.31-.31.63-.63.94-.94,1.11-1.11,1.19-3.15,0-4.24s-3.06-1.19-4.24,0c-2.21,2.21-4.42,4.42-6.63,6.63-.31.31-.63.63-.94.94-1.11,1.11-1.19,3.15,0,4.24s3.06,1.19,4.24,0h0Z"/>
  <path class="cls-1" d="m19.45,22.58c2.21,2.21,4.42,4.42,6.63,6.63l.94.94c1.11,1.11,3.15,1.19,4.24,0s1.19-3.06,0-4.24c-2.21-2.21-4.42-4.42-6.63-6.63l-.94-.94c-1.11-1.11-3.15-1.19-4.24,0s-1.19,3.06,0,4.24h0Z"/>
  <path class="cls-1" d="m78.79,82.89c2.21,2.21,4.42,4.42,6.63,6.63l.94.94c1.11,1.11,3.15,1.19,4.24,0s1.19-3.06,0-4.24c-2.21-2.21-4.42-4.42-6.63-6.63l-.94-.94c-1.11-1.11-3.15-1.19-4.24,0s-1.19,3.06,0,4.24h0Z"/>
</svg>